<svg width="241" height="45" viewBox="0 0 241 45" fill="none" xmlns="http://www.w3.org/2000/svg">
<g clip-path="url(#clip0)">
<path d="M81.6447 24.6336H90.7226C91.9976 24.6336 93.0315 25.6687 93.0315 26.9457C93.0315 28.2226 91.9976 29.2577 90.7226 29.2577H79.7729C79.6022 29.2577 79.4371 29.319 79.3072 29.4306L76.0008 32.2623C75.4943 32.6956 75.8004 33.5261 76.4665 33.5261H90.1743C90.1798 33.5261 90.1842 33.5218 90.1842 33.5163C90.1842 33.5097 90.1897 33.5053 90.1953 33.5064C90.3681 33.5196 90.5421 33.5272 90.7182 33.5272C94.3549 33.5272 97.3024 30.5817 97.3024 26.9478C97.3024 23.4968 94.6445 20.6661 91.2622 20.3903C91.2566 20.3903 91.2522 20.3849 91.2522 20.3794C91.2522 20.3728 91.2478 20.3685 91.2412 20.3685H81.4608C80.1858 20.3685 79.1519 19.3334 79.1519 18.0564C79.1519 16.7795 80.1858 15.7444 81.4608 15.7444H92.3962C92.5757 15.7444 92.7496 15.6766 92.8818 15.5551L95.9514 12.7233C96.4326 12.2802 96.1188 11.4771 95.4659 11.4771H81.6447C81.6436 11.4771 81.6436 11.4781 81.6436 11.4781L81.6425 11.4792C81.5841 11.4781 81.5246 11.4771 81.4652 11.4771C77.8296 11.4771 74.881 14.4226 74.881 18.0564C74.881 21.6902 77.8285 24.6369 81.4652 24.6369C81.5246 24.6369 81.583 24.6358 81.6425 24.6347C81.6436 24.6347 81.6436 24.6347 81.6436 24.6358C81.6436 24.6336 81.6436 24.6336 81.6447 24.6336Z" fill="white"/>
<path d="M134.521 11.4736C134.123 11.4736 133.802 11.7953 133.802 12.1914V32.8071C133.802 33.2032 134.123 33.5249 134.521 33.5249H151.144C151.342 33.5249 151.533 33.4428 151.668 33.2984L153.749 31.0805C154.179 30.622 153.853 29.8714 153.225 29.8714H138.71C138.314 29.8714 137.992 29.5497 137.992 29.1536V12.1914C137.992 11.7953 137.669 11.4736 137.273 11.4736H134.521Z" fill="white"/>
<path fill-rule="evenodd" clip-rule="evenodd" d="M107.895 11.4736C107.894 11.4736 107.893 11.4747 107.893 11.4758C107.893 11.4769 107.892 11.478 107.891 11.478C105.766 11.5699 104.061 13.2692 103.968 15.3843C103.968 15.3854 103.967 15.3865 103.967 15.3865C103.966 15.3865 103.966 15.3865 103.965 15.3876V15.3887V29.2565C103.965 29.2575 103.966 29.2586 103.966 29.2586C103.967 29.2586 103.968 29.2597 103.968 29.2608C103.966 29.3188 103.965 29.3779 103.965 29.437C103.965 31.6352 105.707 33.4297 107.891 33.5238C107.892 33.5238 107.893 33.5249 107.893 33.526V33.5271V33.5282C107.894 33.5282 107.894 33.5282 107.895 33.5282H122.978C122.98 33.5282 122.981 33.5271 122.981 33.526L122.982 33.5249V33.5238H122.983C125.167 33.4297 126.909 31.6363 126.909 29.437C126.909 29.3779 126.908 29.3199 126.906 29.2608C126.906 29.2597 126.907 29.2586 126.908 29.2586C126.908 29.2586 126.909 29.2575 126.909 29.2565V15.3887C126.909 15.3876 126.908 15.3865 126.907 15.3865C126.906 15.3865 126.906 15.3854 126.906 15.3843C126.813 13.2681 125.108 11.5688 122.983 11.478C122.982 11.478 122.981 11.4769 122.981 11.4758C122.981 11.4747 122.98 11.4736 122.978 11.4736H107.895ZM110.706 15.3865H110.705V15.3876C110.705 15.3887 110.705 15.3887 110.704 15.3887C109.376 15.4466 108.309 16.5146 108.252 17.8462C108.252 17.8473 108.252 17.8473 108.251 17.8473L108.25 17.8484V26.5713C108.25 26.5724 108.251 26.5724 108.251 26.5724C108.252 26.5724 108.252 26.5735 108.252 26.5735C108.251 26.6096 108.25 26.6468 108.25 26.684C108.25 28.0671 109.339 29.1952 110.704 29.2543C110.705 29.2543 110.705 29.2554 110.705 29.2554V29.2565H110.706H120.167L120.169 29.2554V29.2543C120.169 29.2532 120.169 29.2532 120.17 29.2532C121.535 29.1941 122.624 28.066 122.624 26.6829C122.624 26.6457 122.623 26.6085 122.622 26.5724L122.623 26.5713L122.624 26.5702V17.8473C122.624 17.8462 122.623 17.8462 122.623 17.8462C122.622 17.8462 122.622 17.8451 122.622 17.8451C122.564 16.5135 121.498 15.4456 120.17 15.3876C120.169 15.3876 120.169 15.3865 120.169 15.3865V15.3854H120.167H110.706V15.3865Z" fill="white"/>
<path fill-rule="evenodd" clip-rule="evenodd" d="M177.922 32.8072C177.922 33.2033 178.241 33.525 178.634 33.525H181.454C181.847 33.525 182.166 33.2033 182.166 32.8072V15.7433C182.166 15.7422 182.165 15.7411 182.164 15.7411H182.163V15.74C182.165 15.682 182.166 15.6229 182.166 15.5638C182.166 13.3656 180.441 11.5711 178.278 11.477C178.277 11.477 178.275 11.4759 178.275 11.4748C178.275 11.4738 178.274 11.4727 178.273 11.4727H163.792C163.791 11.4727 163.79 11.4738 163.79 11.4748C163.79 11.4759 163.789 11.477 163.788 11.477C163.731 11.4748 163.672 11.4737 163.614 11.4737C161.367 11.4737 159.546 13.3054 159.546 15.5638C159.546 15.6229 159.547 15.682 159.549 15.74C159.549 15.7411 159.549 15.7422 159.548 15.7422C159.547 15.7422 159.546 15.7433 159.546 15.7444V32.8083C159.546 33.2044 159.865 33.5261 160.258 33.5261H163.078C163.471 33.5261 163.79 33.2044 163.79 32.8083V25.7081C163.79 25.312 164.11 24.9903 164.504 24.9903H177.209C177.603 24.9903 177.922 25.312 177.922 25.7081V32.8072ZM163.79 21.0709V17.5214C163.79 16.146 164.899 15.0321 166.266 15.0321H175.446C176.813 15.0321 177.922 16.147 177.922 17.5214V21.0709C177.922 21.467 177.603 21.7887 177.209 21.7887H164.504C164.11 21.7887 163.79 21.467 163.79 21.0709Z" fill="white"/>
<path fill-rule="evenodd" clip-rule="evenodd" d="M237.434 33.5251C237.036 33.5251 236.714 33.2034 236.714 32.8073V25.7071C236.714 25.311 236.392 24.9893 235.995 24.9893H223.148C222.75 24.9893 222.429 25.311 222.429 25.7071V32.8073C222.429 33.2034 222.106 33.5251 221.709 33.5251H218.863C218.465 33.5251 218.143 33.2034 218.143 32.8073V15.7434L218.144 15.7423L218.145 15.7412C218.146 15.7412 218.147 15.7401 218.147 15.739C218.145 15.681 218.143 15.622 218.143 15.5629C218.143 13.3045 219.981 11.4728 222.251 11.4728C222.309 11.4728 222.368 11.4739 222.427 11.4761C222.428 11.4761 222.429 11.475 222.429 11.4739C222.429 11.4728 222.43 11.4717 222.43 11.4717H237.069C237.07 11.4717 237.072 11.4728 237.072 11.4739C237.072 11.475 237.072 11.4761 237.073 11.4761C239.257 11.5702 241 13.3635 241 15.5629C241 15.622 240.998 15.681 240.996 15.739C240.996 15.7401 240.997 15.7412 240.998 15.7412C240.998 15.7412 240.999 15.7412 240.999 15.7423L241 15.7434V32.8073C241 33.2034 240.677 33.5251 240.28 33.5251H237.434ZM222.429 17.5204V21.0699C222.429 21.466 222.75 21.7877 223.148 21.7877H235.995C236.392 21.7877 236.714 21.466 236.714 21.0699V17.5204C236.714 16.145 235.595 15.0311 234.214 15.0311H224.928C223.548 15.0311 222.429 16.1461 222.429 17.5204Z" fill="white"/>
<path d="M192.778 11.4736C192.987 11.4736 193.186 11.5655 193.321 11.7253L205.965 26.7048C206.395 27.2125 207.22 26.9061 207.22 26.2387V12.1914C207.22 11.7953 207.539 11.4736 207.933 11.4736H210.752C211.146 11.4736 211.465 11.7953 211.465 12.1914V32.8071C211.465 33.2032 211.146 33.5249 210.752 33.5249H207.247C207.231 33.5249 207.22 33.5129 207.22 33.4986C207.22 33.4921 207.217 33.4855 207.214 33.4811L194.357 18.6067C193.923 18.1066 193.107 18.4152 193.107 19.0794V32.8082C193.107 33.2043 192.788 33.526 192.395 33.526H189.557C189.164 33.526 188.844 33.2043 188.844 32.8082V12.1914C188.844 11.7953 189.164 11.4736 189.557 11.4736H192.778Z" fill="white"/>
<path d="M9.33675 34.2844C9.68798 33.9354 10.1647 33.7395 10.6624 33.7395H56.5159C57.3515 33.7395 57.7688 34.7429 57.1787 35.3305L48.1183 44.328C47.7671 44.6771 47.2903 44.8729 46.7927 44.8729H0.939196C0.103515 44.8729 -0.313776 43.8695 0.276376 43.282L9.33675 34.2844Z" fill="url(#paint0_linear)"/>
<path d="M9.33647 0.671861C9.6888 0.322814 10.1655 0.126953 10.6621 0.126953H56.5156C57.3513 0.126953 57.7686 1.13033 57.1784 1.71791L48.118 10.7155C47.7668 11.0645 47.2901 11.2604 46.7924 11.2604H0.938914C0.103232 11.2604 -0.314058 10.257 0.276094 9.66941L9.33647 0.671861Z" fill="url(#paint1_linear)"/>
<path d="M48.1183 17.3713C47.7671 17.0223 47.2903 16.8264 46.7927 16.8264H0.939196C0.103515 16.8264 -0.313776 17.8298 0.276376 18.4174L9.33675 27.4149C9.68798 27.764 10.1647 27.9598 10.6624 27.9598H56.5159C57.3515 27.9598 57.7688 26.9565 57.1787 26.3689L48.1183 17.3713Z" fill="url(#paint2_linear)"/>
</g>
<defs>
<linearGradient id="paint0_linear" x1="52.1352" y1="-5.25043" x2="20.7102" y2="55.3171" gradientUnits="userSpaceOnUse">
<stop stop-color="#00FFA3"/>
<stop offset="1" stop-color="#DC1FFF"/>
</linearGradient>
<linearGradient id="paint1_linear" x1="38.2588" y1="-12.45" x2="6.83384" y2="48.1176" gradientUnits="userSpaceOnUse">
<stop stop-color="#00FFA3"/>
<stop offset="1" stop-color="#DC1FFF"/>
</linearGradient>
<linearGradient id="paint2_linear" x1="45.153" y1="-8.87324" x2="13.728" y2="51.6943" gradientUnits="userSpaceOnUse">
<stop stop-color="#00FFA3"/>
<stop offset="1" stop-color="#DC1FFF"/>
</linearGradient>
<clipPath id="clip0">
<rect width="241" height="44.7459" fill="white" transform="translate(0 0.126953)"/>
</clipPath>
</defs>
</svg>
